<svg xmlns="http://www.w3.org/2000/svg" viewBox="0 0 200 200" fill="none">
  <!-- Outer background — teal -->
  <rect width="200" height="200" rx="36" fill="#2d6e7e"/>

  <!-- Inner border frame — gold -->
  <rect x="14" y="14" width="172" height="172" rx="24"
    stroke="#c9956a" stroke-width="4" fill="none"/>

  <!-- Large C -->
  <path d="
    M 148 52
    C 148 52 110 28 72 44
    C 34 60 22 96 28 124
    C 34 152 60 176 100 176
    C 130 176 152 162 160 148
    L 144 136
    C 136 148 118 160 100 160
    C 68 160 48 140 44 120
    C 40 100 48 72 72 58
    C 96 44 128 54 140 66
    Z
  " fill="#c9956a"/>

  <!-- S inside C -->
  <path d="
    M 120 68
    C 108 60 90 60 82 70
    C 74 80 80 94 96 100
    C 112 106 120 116 114 128
    C 108 140 90 142 78 134
    L 70 146
    C 86 158 110 156 122 142
    C 134 128 126 112 108 104
    C 90 96 84 86 90 76
    C 96 66 112 66 122 74
    Z
  " fill="#2d6e7e"/>

  <!-- Flag on top -->
  <path d="M 140 66 L 148 52 L 168 58 L 162 72 Z" fill="#c9956a"/>
</svg>
